<?xml version="1.0" encoding="UTF-8"?>
<svg version="1.1" xmlns="http://www.w3.org/2000/svg" width="512" height="512">
<path d="M0 0 C15.13627384 14.2572162 24.20963902 32.9917528 24.84814453 53.86743164 C25.05411907 76.93470706 17.24054049 95.91000945 1.296875 112.54296875 C-10.59260144 123.92604156 -25.61448585 129.70658098 -41.625 132.375 C-41.955 185.835 -42.285 239.295 -42.625 294.375 C-46.61491071 295.37247768 -48.38628347 295.26532392 -52.3125 294.5 C-53.77236328 294.22542969 -53.77236328 294.22542969 -55.26171875 293.9453125 C-57.625 293.375 -57.625 293.375 -58.625 292.375 C-58.73408916 290.31238494 -58.77191403 288.24599364 -58.78321838 286.18052673 C-58.78815636 285.52630393 -58.79309434 284.87208113 -58.79818195 284.19803339 C-58.81362828 281.99001649 -58.82193673 279.78202881 -58.83032227 277.57397461 C-58.8398952 275.99748982 -58.84990492 274.42100764 -58.86032104 272.8445282 C-58.88743962 268.55135247 -58.90841141 264.25816567 -58.92832303 259.96495128 C-58.95013986 255.48325106 -58.97754953 251.00158523 -59.00437927 246.51991272 C-59.05436454 238.02721585 -59.09928165 229.53449995 -59.14240164 221.04176575 C-59.19172426 211.37564019 -59.24666078 201.70954913 -59.30208123 192.04345691 C-59.4159908 172.15400339 -59.52281019 152.26451696 -59.625 132.375 C-60.79680817 132.10741379 -61.96861633 131.83982758 -63.17593384 131.56413269 C-64.72621716 131.205938 -66.27645699 130.84755508 -67.82666016 130.48901367 C-68.59748428 130.31351738 -69.36830841 130.13802109 -70.16249084 129.95720673 C-75.42103863 128.73570806 -80.23534905 127.27256244 -85 124.6875 C-85.97839844 124.1759436 -85.97839844 124.1759436 -86.9765625 123.65405273 C-104.4203668 114.19602548 -116.35559476 98.73081967 -122.8359375 80.16796875 C-128.84839717 58.88624269 -126.51174266 37.64894286 -115.94921875 18.23828125 C-106.23233318 1.4750864 -90.61750067 -9.85545593 -72.28515625 -15.6875 C-46.78575057 -22.3758687 -20.44642272 -17.06863056 0 0 Z M-71.625 21.375 C-71.625 45.135 -71.625 68.895 -71.625 93.375 C-50.37624613 81.78477062 -29.35478821 69.87417679 -8.625 57.375 C-11.85766975 54.6841852 -15.05277197 52.43615192 -18.73828125 50.4140625 C-19.72779785 49.86669434 -20.71731445 49.31932617 -21.73681641 48.75537109 C-23.32115479 47.8864624 -23.32115479 47.8864624 -24.9375 47 C-35.90456999 40.92655123 -46.75801584 34.68007288 -57.5703125 28.3359375 C-58.44075195 27.82643555 -59.31119141 27.31693359 -60.20800781 26.79199219 C-61.7360715 25.89614555 -63.26178614 24.99626921 -64.78417969 24.09082031 C-67.98717284 22.04676032 -67.98717284 22.04676032 -71.625 21.375 Z " fill="#000000" transform="translate(306.625,52.625)"/>
<path d="M0 0 C3.42274232 2.77829293 5.94154339 5.28060316 6.8671875 9.703125 C7.44211605 15.43111689 7.22595484 19.82749499 3.8671875 24.703125 C-1.23773932 29.86882476 -7.29362832 33.34252281 -13.5703125 36.890625 C-15.72088998 38.12484323 -17.87058301 39.36060347 -20.01953125 40.59765625 C-20.58684967 40.92334595 -21.15416809 41.24903564 -21.73867798 41.58459473 C-28.1514485 45.27281399 -34.49762588 49.07166447 -40.84881592 52.86456299 C-104.21760981 90.67286693 -104.21760981 90.67286693 -132.1328125 101.703125 C-133.28910156 102.16589844 -134.44539062 102.62867188 -135.63671875 103.10546875 C-142.32179708 105.40612723 -148.19163267 105.86934214 -155.15234375 105.421875 C-156.45240608 105.34756004 -156.45240608 105.34756004 -157.7787323 105.27174377 C-166.19552258 104.7607829 -174.58622221 103.97711508 -182.98095703 103.19213867 C-200.5831763 101.55225388 -218.07218139 100.31243071 -235.7578125 100.390625 C-236.9424559 100.39471878 -236.9424559 100.39471878 -238.15103149 100.39889526 C-247.8673364 100.45319343 -257.41576271 101.00905001 -267.1328125 101.703125 C-267.1328125 77.613125 -267.1328125 53.523125 -267.1328125 28.703125 C-257.5628125 27.383125 -247.9928125 26.063125 -238.1328125 24.703125 C-226.03810862 21.28505651 -215.12587707 15.9932419 -203.92138672 10.37329102 C-180.43381388 -1.3184934 -163.45585555 1.06270707 -138.7578125 7.078125 C-137.59386963 7.35785156 -136.42992676 7.63757813 -135.23071289 7.92578125 C-112.31303625 13.68738129 -112.31303625 13.68738129 -105.1953125 21.953125 C-103.70859144 25.80110891 -103.58653488 28.91617656 -105.1328125 32.703125 C-108.50691167 36.69836516 -111.94223451 39.69057738 -117.1328125 40.703125 C-119.99792554 40.65411625 -122.81881399 40.5425324 -125.67578125 40.36328125 C-126.51392868 40.31478531 -127.35207611 40.26628937 -128.21562195 40.21632385 C-138.1180539 39.62153726 -148.00207857 38.78342605 -157.88500977 37.92993164 C-165.95163621 37.23744453 -174.018714 36.59710814 -182.11328125 36.36328125 C-183.20922607 36.32984619 -184.3051709 36.29641113 -185.43432617 36.26196289 C-188.23710981 36.46162606 -188.23710981 36.46162606 -190.05981445 38.52124023 C-191.4774921 40.81101229 -191.4774921 40.81101229 -190.3203125 43.953125 C-189.7325 45.314375 -189.7325 45.314375 -189.1328125 46.703125 C-182.10307107 48.26816963 -175.17479028 49.20262159 -168 49.7734375 C-166.96449005 49.85939178 -165.9289801 49.94534607 -164.86209106 50.03390503 C-162.68238648 50.21317425 -160.50243732 50.3894921 -158.32226562 50.56298828 C-155.03693609 50.82579528 -151.75289206 51.10169906 -148.46875 51.37890625 C-122.79614002 54.47221781 -122.79614002 54.47221781 -99.59765625 45.4765625 C-93.98422597 41.50279576 -88.09859762 38.18818033 -82.0703125 34.890625 C-79.84038556 33.65632044 -77.61121957 32.42064016 -75.3828125 31.18359375 C-73.77019531 30.28906494 -73.77019531 30.28906494 -72.125 29.37646484 C-68.24150276 27.20467224 -64.39747643 24.97239577 -60.5703125 22.703125 C-59.92296143 22.31954834 -59.27561035 21.93597168 -58.60864258 21.54077148 C-57.2345421 20.72601581 -55.86060638 19.91098224 -54.48681641 19.09570312 C-49.58742013 16.19732557 -44.67234334 13.32573734 -39.7578125 10.453125 C-38.77095459 9.87433594 -37.78409668 9.29554688 -36.76733398 8.69921875 C-33.89609122 7.02145453 -31.01760374 5.35747852 -28.1328125 3.703125 C-27.1437793 3.13529297 -26.15474609 2.56746094 -25.13574219 1.98242188 C-24.17313477 1.44166016 -23.21052734 0.90089844 -22.21875 0.34375 C-21.36071777 -0.14061523 -20.50268555 -0.62498047 -19.61865234 -1.12402344 C-13.15656493 -4.17292031 -6.13332076 -3.72941849 0 0 Z " fill="#000000" transform="translate(415.1328125,355.296875)"/>
<path d="M0 0 C14.41458136 12.47796585 25.03106914 29.31184206 26.59423828 48.66503906 C27.61423395 68.27837279 24.09209363 83.83799114 14.37109375 100.90234375 C13.71109375 101.56234375 13.05109375 102.22234375 12.37109375 102.90234375 C12.68189025 106.41791812 14.23311483 108.12983847 16.6875 110.546875 C17.71133789 111.56297852 17.71133789 111.56297852 18.75585938 112.59960938 C19.83383789 113.64665039 19.83383789 113.64665039 20.93359375 114.71484375 C21.9709668 115.74448242 21.9709668 115.74448242 23.02929688 116.79492188 C27.10800873 120.81281417 31.30563163 124.64777625 35.63696289 128.39086914 C37.59762481 130.09978903 39.47389089 131.87150699 41.30859375 133.71484375 C41.87449219 134.27816406 42.44039062 134.84148437 43.0234375 135.421875 C46.09911711 138.80066506 45.49821419 142.44236066 45.46875 146.75390625 C45.46662758 147.91495377 45.46662758 147.91495377 45.46446228 149.09945679 C45.45885778 151.57545817 45.44630458 154.05136963 45.43359375 156.52734375 C45.42857933 158.20442578 45.42401632 159.88150922 45.41992188 161.55859375 C45.4088869 165.67321181 45.39161929 169.78776253 45.37109375 173.90234375 C43.62704587 174.91268873 41.87559814 175.91026797 40.12109375 176.90234375 C39.1465625 177.45921875 38.17203125 178.01609375 37.16796875 178.58984375 C34.37109375 179.90234375 34.37109375 179.90234375 30.37109375 179.90234375 C30.41935303 178.91540527 30.4676123 177.9284668 30.51733398 176.91162109 C32.26499542 157.48496196 32.26499542 157.48496196 26.3515625 139.84765625 C23.333999 136.83286588 19.93574211 134.47930775 16.32617188 132.22460938 C13.20461721 130.11342805 10.78292352 127.4158842 8.24609375 124.65234375 C4.00307126 120.12387643 4.00307126 120.12387643 -1.62890625 117.90234375 C-4.25362024 119.01814329 -4.25362024 119.01814329 -6.75390625 120.96484375 C-24.18374869 132.84140306 -43.96804087 135.88103535 -64.57568359 132.32080078 C-84.22354701 128.3164681 -101.45179483 115.58355894 -112.5390625 99.0546875 C-123.35384126 81.25966937 -127.07966936 59.99702242 -122.12890625 39.58984375 C-116.21336058 19.11455715 -103.91460924 2.19933201 -85.16918945 -8.34448242 C-57.49590239 -23.05842564 -24.40039798 -19.46955976 0 0 Z M-78.94140625 30.08984375 C-83.98856633 35.37175546 -85.86580991 39.79562642 -86.19140625 47.15234375 C-85.80101083 58.40874505 -80.38836292 67.21810906 -73.62890625 75.90234375 C-73.15710938 76.52753906 -72.6853125 77.15273438 -72.19921875 77.796875 C-68.04459382 82.99602428 -63.01466407 87.03257702 -57.62890625 90.90234375 C-56.81035156 91.51722656 -55.99179688 92.13210938 -55.1484375 92.765625 C-52.55165593 94.42938171 -50.67967086 95.41868595 -47.62890625 95.90234375 C-43.27227801 94.43324818 -40.11770412 91.84053525 -36.62890625 88.90234375 C-35.6853125 88.13535156 -34.74171875 87.36835938 -33.76953125 86.578125 C-21.91596777 76.41091102 -12.6497195 63.78419066 -10.72265625 48.015625 C-10.52969489 41.60769971 -12.51131696 37.00476554 -16.44140625 32.02734375 C-20.90015303 27.30631775 -25.77561311 25.32710393 -32.1796875 24.76171875 C-37.44750018 25.06417689 -42.89003707 27.16347457 -46.62890625 30.90234375 C-49.49814033 30.67582527 -51.20786366 30.22514307 -53.50390625 28.46484375 C-61.66714456 22.46246264 -71.1726467 24.95953084 -78.94140625 30.08984375 Z " fill="#000000" transform="translate(159.62890625,182.09765625)"/>
<path d="M0 0 C15.76514088 12.4621615 26.31008071 29.84629698 29 50 C30.61095333 70.65259217 27.03321212 89.6243931 14.125 106.3125 C12.77153918 107.89369419 11.39654482 109.45672627 10 111 C9.32324219 111.76957031 8.64648438 112.53914063 7.94921875 113.33203125 C-5.27940328 127.52801138 -23.85229836 134.88625861 -42.98779297 135.93017578 C-59.10240434 136.48935788 -78.61780115 132.04195136 -91.1484375 121.12890625 C-91.75945312 120.75636719 -92.37046875 120.38382813 -93 120 C-97.23049262 121.1914503 -99.62457635 123.28035532 -102.65234375 126.39453125 C-103.51150391 127.26787109 -104.37066406 128.14121094 -105.25585938 129.04101562 C-106.14080078 129.95560547 -107.02574219 130.87019531 -107.9375 131.8125 C-109.6942717 133.61296609 -111.45332674 135.41120755 -113.21484375 137.20703125 C-114.37681274 138.40549683 -114.37681274 138.40549683 -115.56225586 139.62817383 C-118 142 -118 142 -121.2487793 144.20849609 C-124.59407801 147.60277646 -124.72260386 149.22030451 -124.83224487 153.81758118 C-124.81860397 155.12410896 -124.81860397 155.12410896 -124.8046875 156.45703125 C-124.81839386 157.35999435 -124.83210022 158.26295746 -124.84622192 159.19328308 C-124.88350258 162.06686311 -124.87980848 164.93871259 -124.875 167.8125 C-124.89312817 169.76500095 -124.91393124 171.71747902 -124.9375 173.66992188 C-124.98933282 178.44690432 -125.00443188 183.22275178 -125 188 C-128.64315075 187.17790325 -131.48215447 185.76593738 -134.75 183.9375 C-135.73484375 183.38964844 -136.7196875 182.84179688 -137.734375 182.27734375 C-138.48203125 181.85582031 -139.2296875 181.43429687 -140 181 C-140.17391434 175.4500303 -140.30047214 169.9016686 -140.38452148 164.34960938 C-140.41957944 162.46391144 -140.4672419 160.57840181 -140.52807617 158.69335938 C-141.08479136 140.99075194 -141.08479136 140.99075194 -136.6875 135.94140625 C-135.4906714 134.92171465 -134.26159367 133.93837683 -133 133 C-131.83863323 131.82768712 -130.69073534 130.64173225 -129.5625 129.4375 C-127.20168804 127.10809574 -124.76737503 124.90848246 -122.25 122.75 C-118.7298367 119.68808281 -115.30189305 116.54394699 -111.9375 113.3125 C-111.43573242 112.84875977 -110.93396484 112.38501953 -110.41699219 111.90722656 C-107.7653872 109.44005103 -107.7653872 109.44005103 -106.953125 106.0703125 C-108.43217219 103.14533111 -110.10230313 100.35521715 -111.8125 97.5625 C-121.8648693 80.61746135 -124.15161076 58.97319232 -119.4375 39.875 C-115.72164367 28.2319835 -110.2035235 18.08597424 -102 9 C-101.43539062 8.36578125 -100.87078125 7.7315625 -100.2890625 7.078125 C-74.16937438 -20.63572249 -29.86091726 -22.04020083 0 0 Z M-58 17 C-61.55105089 22.38192845 -61.36013842 27.16887014 -61.1875 33.375 C-61.17396484 34.30183594 -61.16042969 35.22867188 -61.14648438 36.18359375 C-61.11134435 38.45598208 -61.05754423 40.72806862 -61 43 C-65.95 43 -70.9 43 -76 43 C-76 60.49 -76 77.98 -76 96 C-67.935625 96.061875 -59.87125 96.12375 -51.5625 96.1875 C-47.76987671 96.22846802 -47.76987671 96.22846802 -43.90063477 96.27026367 C-41.87256344 96.27903431 -39.84448678 96.28667688 -37.81640625 96.29296875 C-36.78286011 96.30831665 -35.74931396 96.32366455 -34.68444824 96.33947754 C-24.63446837 96.34307067 -16.33196309 94.14027778 -9 87 C-3.37836184 79.76022281 -2.1135838 73.08576609 -3 64 C-4.89538758 57.38674552 -8.37628964 51.23978077 -14.33203125 47.55859375 C-20.75140253 44.18048383 -25.96318957 42.97068958 -33.1875 42.98828125 C-34.08855469 42.98997314 -34.98960937 42.99166504 -35.91796875 42.9934082 C-36.94857422 42.99667114 -36.94857422 42.99667114 -38 43 C-37.97643433 42.13048706 -37.97643433 42.13048706 -37.95239258 41.2434082 C-37.88977209 38.59987261 -37.85092482 35.95649345 -37.8125 33.3125 C-37.78736328 32.40048828 -37.76222656 31.48847656 -37.73632812 30.54882812 C-37.66435417 23.95121569 -38.55223036 20.51576324 -43.25 15.6875 C-48.42831996 12.50989457 -53.39544867 13.16287389 -58 17 Z " fill="#000000" transform="translate(447,180)"/>
<path d="M0 0 C8.91 0 17.82 0 27 0 C27 35.31 27 70.62 27 107 C18.42 107 9.84 107 1 107 C0 106 0 106 -0.12304783 104.22151089 C-0.12166514 103.0503729 -0.12166514 103.0503729 -0.12025452 101.85557556 C-0.12162918 100.96230057 -0.12300385 100.06902557 -0.12442017 99.14868164 C-0.12082489 98.16109863 -0.11722961 97.17351562 -0.11352539 96.15600586 C-0.11367142 95.12198135 -0.11381744 94.08795685 -0.1139679 93.02259827 C-0.11326827 89.58665914 -0.10547358 86.15077347 -0.09765625 82.71484375 C-0.09579225 80.33972707 -0.09436826 77.96461 -0.09336853 75.5894928 C-0.08954197 69.32423856 -0.0797105 63.05900733 -0.06866455 56.79376221 C-0.0584534 50.4061311 -0.05387155 44.01849629 -0.04882812 37.63085938 C-0.03808836 25.08722782 -0.02049044 12.54361942 0 0 Z " fill="#000000" transform="translate(107,371)"/>
</svg>